first trial
nRows=32
nColumns=38

# SIMM Motion File Header:
name Sujet_07_velo_80.mvnx
datacolumns 38
datarows 32
otherdata 1
range 0.0000 0.5160
endheader
time pelvis_tilt  pelvis_list  pelvis_rotation  pelvis_tx  pelvis_ty  pelvis_tz  hip_flexion_r  hip_adduction_r  hip_rotation_r  knee_angle_r  ankle_angle_r  subtalar_angle_r  mtp_angle_r  hip_flexion_l  hip_adduction_l  hip_rotation_l  knee_angle_l  ankle_angle_l  subtalar_angle_l  mtp_angle_l  lumbar_extension  lumbar_bending  lumbar_rotation  arm_flex_r  arm_add_r  arm_rot_r  elbow_flex_r  pro_sup_r  wrist_flex_r  wrist_dev_r  arm_flex_l  arm_add_l  arm_rot_l  elbow_flex_l  pro_sup_l  wrist_flex_l  wrist_dev_l
0.0000	-29.0150	-8.0532	-61.0736	0.0000	1.2500	-0.0000	95.1801	4.5071	-0.4782	98.2731	6.8680	-4.0133	-0.0000	53.9615	-14.5119	-7.9779	35.7785	-13.9234	0.7019	0.0000	-15.7810	-0.0098	4.2449	105.9715	-3.0901	21.0107	10.6282	71.8198	-46.2183	-40.6486	89.6967	-6.0182	41.0984	9.7555	39.9305	-46.5124	-49.3794	
0.0160	-28.7671	-7.9091	-60.7410	0.0000	1.2500	-0.0000	94.3605	4.5322	-0.6935	95.5767	9.4237	-4.9036	-0.0000	53.7740	-14.2440	-8.1716	38.6233	-12.6577	0.7161	0.0000	-15.9424	0.0447	4.1505	105.7421	-2.9504	20.9849	10.5823	71.8062	-46.2874	-40.7216	89.4693	-5.6978	41.4546	9.2468	39.4455	-46.4412	-49.4996	
0.0330	-28.5183	-7.7669	-60.4098	0.0000	1.2500	-0.0000	93.5422	4.5592	-0.9124	92.8820	11.9854	-5.8543	-0.0000	53.5860	-13.9768	-8.3650	41.4674	-11.3905	0.7204	0.0000	-16.1037	0.0997	4.0562	105.5128	-2.8106	20.9593	10.5363	71.7922	-46.3566	-40.7947	89.2408	-5.3775	41.8113	8.7353	38.9562	-46.3701	-49.6200	
0.0500	-28.3150	-7.5369	-60.0167	0.0000	1.2500	-0.0000	92.5001	4.4358	-1.3101	89.8012	13.8504	-6.6359	0.0000	53.8522	-13.7950	-8.3043	44.8886	-10.1144	0.8193	-0.0000	-16.2388	0.1316	3.9349	105.3102	-2.7251	20.9759	10.5170	71.7353	-46.3964	-40.8555	89.0699	-5.1465	42.1329	8.3405	38.5803	-46.2830	-49.7045	
0.0660	-28.1810	-7.1822	-59.5639	0.0000	1.2500	-0.0000	91.1918	4.1095	-1.9811	86.1591	14.7606	-7.1453	-0.0000	54.7940	-13.7569	-7.8718	49.2421	-8.7575	1.0690	0.0000	-16.3313	0.1253	3.7830	105.1516	-2.7285	21.0951	10.5396	71.5775	-46.3816	-40.8899	88.9920	-5.0691	42.4436	8.1373	38.3413	-46.1726	-49.7394	
0.0830	-28.0895	-6.7391	-59.0488	0.0000	1.2500	-0.0000	89.6612	3.6456	-2.8505	82.1169	14.9715	-7.4183	-0.0000	56.1942	-13.7838	-7.1949	54.1717	-7.3898	1.4123	0.0000	-16.3980	0.0957	3.6040	105.0194	-2.7865	21.2559	10.5887	71.3773	-46.3373	-40.9119	88.9732	-5.0804	42.7187	8.0537	38.2202	-46.0461	-49.7385	
0.1000	-28.0085	-6.2270	-58.4010	0.0000	1.2500	-0.0000	87.8144	3.0748	-3.8532	77.7874	14.5471	-7.4218	0.0000	57.8458	-13.7515	-6.3961	59.1897	-6.2168	1.7847	0.0000	-16.4631	0.0651	3.3812	104.8874	-2.8497	21.3178	10.6447	71.2667	-46.3101	-40.9517	88.9675	-5.0757	42.8483	7.9894	38.2740	-45.9092	-49.7069	
0.1160	-27.9186	-5.6103	-57.5819	0.0000	1.2500	-0.0000	85.5810	2.4184	-5.1526	73.1308	13.4508	-7.1223	0.0000	59.6998	-13.6108	-5.4462	64.2404	-5.3463	2.1537	0.0000	-16.5369	0.0231	3.0995	104.7263	-2.9068	21.1734	10.7279	71.3648	-46.3217	-41.0189	88.9417	-5.0261	42.7155	7.9186	38.6077	-45.7333	-49.6299	
0.1330	-27.8327	-4.9254	-56.6306	0.0000	1.2500	-0.0000	83.0363	1.6914	-6.6316	68.1663	11.7167	-6.5765	0.0000	61.8040	-13.3826	-4.4013	69.3830	-4.6712	2.5533	-0.0000	-16.6098	-0.0197	2.7742	104.5654	-2.9684	20.9300	10.8184	71.5527	-46.3502	-41.1037	88.9287	-4.9617	42.4370	7.8676	39.1164	-45.5470	-49.5222	
0.1500	-27.7689	-4.3013	-55.5935	0.0000	1.2500	-0.0000	80.3010	0.8937	-7.8053	63.1281	9.5097	-5.9029	0.0000	64.0869	-13.0637	-3.5133	74.3018	-4.0734	3.0209	-0.0000	-16.6759	-0.0090	2.4339	104.4668	-3.0181	20.7695	10.8364	71.6050	-46.3769	-41.2078	88.9805	-4.8658	42.2532	7.8137	39.5413	-45.4412	-49.4336	
0.1660	-27.7379	-3.7960	-54.4620	0.0000	1.2500	-0.0000	77.3357	-0.0192	-8.5330	58.0230	6.7998	-5.1203	0.0000	66.5610	-12.6493	-2.9437	78.9257	-3.6153	3.6715	0.0000	-16.7355	0.0863	2.0836	104.4561	-3.0285	20.8150	10.7084	71.3747	-46.3949	-41.3438	89.1360	-4.7230	42.2648	7.7387	39.7858	-45.4692	-49.3897	
0.1830	-27.7306	-3.3492	-53.2425	0.0000	1.2500	-0.0000	74.1658	-1.0177	-9.0001	52.8969	3.6120	-4.2360	0.0000	69.1975	-12.1462	-2.5587	83.3153	-3.2316	4.3937	0.0000	-16.7866	0.2352	1.7187	104.5078	-3.0281	20.9436	10.5045	71.0071	-46.4110	-41.4990	89.3552	-4.5467	42.3710	7.6601	39.9465	-45.5777	-49.3646	
0.2000	-27.7397	-2.9104	-52.0044	0.0000	1.2500	-0.0000	71.0070	-2.0334	-9.1861	48.0621	0.1884	-3.3401	-0.0000	71.8641	-11.5780	-2.1534	87.3551	-2.6137	4.8893	-0.0000	-16.8189	0.3974	1.3536	104.6077	-3.0843	20.9682	10.3617	70.7170	-46.4265	-41.6370	89.5714	-4.3621	42.5098	7.6076	40.0544	-45.6972	-49.3306	
0.2160	-27.7644	-2.4659	-50.7314	0.0000	1.2500	-0.0000	67.8676	-3.1160	-8.9886	43.5204	-3.5753	-2.4233	0.0000	74.5684	-10.9341	-1.6682	91.0694	-1.6546	5.0833	0.0000	-16.8303	0.5741	0.9878	104.7977	-3.2418	20.7391	10.3602	70.6491	-46.4399	-41.7345	89.7750	-4.1704	42.6990	7.6014	40.0754	-45.8246	-49.2757	
0.2330	-27.8051	-2.0278	-49.4384	0.0000	1.2500	-0.0000	64.7311	-4.2633	-8.5190	39.2394	-7.5894	-1.4862	0.0000	77.3012	-10.2169	-1.1779	94.4385	-0.4659	5.0636	0.0000	-16.8222	0.7633	0.6214	105.0342	-3.4561	20.4058	10.4230	70.6604	-46.4528	-41.8148	89.9754	-3.9705	42.9207	7.6214	40.0438	-45.9631	-49.2121	
0.2500	-27.8561	-1.5841	-48.2403	0.0000	1.2500	-0.0000	61.7842	-5.3324	-8.0314	35.4727	-11.3203	-0.6071	0.0000	79.9156	-9.4736	-0.6551	97.2882	0.9289	4.7790	-0.0000	-16.7919	0.9193	0.2691	105.1762	-3.6611	20.2293	10.4547	70.5361	-46.4716	-41.9106	90.1354	-3.7850	43.0597	7.6370	40.0931	-46.0535	-49.1476	
0.2660	-27.9070	-1.1205	-47.1518	0.0000	1.2500	-0.0000	59.0065	-6.3098	-7.4580	32.1840	-14.7236	0.2859	0.0000	82.4146	-8.6977	0.0052	99.6254	2.5932	4.1729	0.0000	-16.7362	1.0293	-0.0730	105.1612	-3.8419	20.3859	10.3804	70.1161	-46.5010	-42.0516	90.2450	-3.6119	43.0562	7.6201	40.2978	-46.0640	-49.0888	
0.2830	-27.9698	-0.6510	-46.1581	0.0000	1.2500	-0.0000	56.4247	-7.2314	-6.8270	29.3964	-17.8510	1.1494	-0.0000	84.8028	-7.9010	0.7164	101.4465	4.4569	3.3103	0.0000	-16.6597	1.1050	-0.4013	105.0539	-4.0128	20.6993	10.2737	69.5604	-46.5363	-42.2081	90.3150	-3.4538	42.9700	7.5981	40.5834	-46.0262	-49.0292	
0.3000	-28.0750	-0.2056	-45.3289	0.0000	1.2500	-0.0000	54.3042	-7.9943	-6.4909	27.5075	-20.2939	1.7587	-0.0000	86.9428	-7.1828	1.2499	102.5597	6.2972	2.3172	-0.0000	-16.5733	1.1377	-0.6890	104.9049	-4.1511	20.9023	10.2621	69.1340	-46.5694	-42.3240	90.3398	-3.3398	42.8652	7.6239	40.8591	-45.9760	-48.9565	
0.3160	-28.2569	0.2267	-44.6856	0.0000	1.2500	-0.0000	52.7011	-8.5299	-6.6182	26.6260	-21.9005	2.0268	0.0000	88.8519	-6.5999	1.5885	102.8958	8.1199	1.1028	-0.0000	-16.4701	1.1100	-0.9308	104.6757	-4.2297	20.8319	10.4354	68.9778	-46.6043	-42.3711	90.2890	-3.2955	42.7574	7.7263	41.1036	-45.9166	-48.8555	
0.3330	-28.4855	0.6365	-44.2055	0.0000	1.2500	-0.0000	51.5718	-8.8917	-6.9820	26.6806	-22.8042	2.0954	-0.0000	90.5213	-6.1253	1.7949	102.5226	9.9101	-0.2299	-0.0000	-16.3577	1.0400	-1.1318	104.4040	-4.2740	20.6511	10.7049	68.9512	-46.6370	-42.3774	90.1932	-3.2958	42.6315	7.8761	41.3378	-45.8446	-48.7412	
0.3500	-28.6951	0.9611	-43.8936	0.0000	1.2500	-0.0000	51.0327	-9.1527	-7.3276	27.8192	-23.0153	2.0509	-0.0000	91.7759	-5.7464	1.7750	101.4505	11.4289	-1.2912	0.0000	-16.2669	0.9723	-1.2806	104.2528	-4.3424	20.5817	10.9314	68.8960	-46.6479	-42.3710	90.1380	-3.2932	42.5055	8.0399	41.5353	-45.7864	-48.6475	
0.3660	-28.8815	1.1735	-43.7836	0.0000	1.2500	-0.0000	51.2296	-9.3290	-7.5792	30.2978	-22.3690	1.8127	0.0000	92.5882	-5.4668	1.4954	99.6135	12.6632	-1.9493	-0.0000	-16.2061	0.9214	-1.3677	104.3336	-4.4838	20.7666	11.0670	68.7214	-46.6160	-42.3600	90.1675	-3.2492	42.3727	8.2280	41.6986	-45.7562	-48.5970	
0.3830	-29.0521	1.2978	-43.8447	0.0000	1.2500	-0.0000	52.0199	-9.4155	-7.7936	33.8563	-21.0306	1.3985	-0.0000	92.9895	-5.2856	1.0137	97.0780	13.6433	-2.3786	-0.0000	-16.1662	0.8733	-1.4026	104.5362	-4.6511	21.0631	11.1609	68.5181	-46.5622	-42.3364	90.2374	-3.2020	42.2396	8.4310	41.8250	-45.7400	-48.5674	
0.4000	-29.1580	1.3484	-43.9877	0.0000	1.2500	-0.0000	53.0831	-9.4569	-7.9233	37.8777	-19.5072	1.0205	-0.0000	92.8913	-5.1766	0.3662	94.0520	14.2077	-2.6647	0.0000	-16.1516	0.8298	-1.4030	104.6903	-4.7609	21.2631	11.2185	68.4002	-46.5299	-42.3038	90.3005	-3.2180	42.1450	8.5870	41.8806	-45.7217	-48.5257	
0.4160	-29.1791	1.3181	-44.1699	0.0000	1.2500	-0.0000	54.3103	-9.4743	-7.9992	42.2417	-17.7531	0.6546	0.0000	92.2439	-5.1077	-0.5042	90.5333	14.2914	-2.8292	0.0000	-16.1630	0.7971	-1.3729	104.7174	-4.7737	21.2376	11.2245	68.4359	-46.5433	-42.2663	90.3105	-3.3221	42.1636	8.6650	41.7880	-45.7163	-48.4619	
0.4330	-29.1348	1.2144	-44.4341	0.0000	1.2500	-0.0000	55.8091	-9.4423	-7.9974	47.0721	-15.8109	0.3043	0.0000	91.0986	-5.0879	-1.5443	86.5253	13.9624	-2.8623	0.0000	-16.1997	0.7688	-1.3084	104.6955	-4.7292	21.1154	11.1926	68.5570	-46.5780	-42.2197	90.3140	-3.4892	42.2211	8.6957	41.6253	-45.7089	-48.3859	
0.4500	-29.0351	1.0759	-44.8181	0.0000	1.2500	-0.0000	57.5832	-9.3268	-7.7919	52.1209	-14.3062	0.2418	0.0000	89.5153	-5.1520	-2.5608	82.2408	13.2567	-2.7821	0.0000	-16.2642	0.7279	-1.2160	104.6876	-4.6620	21.0750	11.1700	68.6732	-46.6035	-42.1555	90.4032	-3.7115	42.1334	8.7114	41.5918	-45.6386	-48.2950	
0.4660	-28.8636	0.9255	-45.3344	0.0000	1.2500	-0.0000	59.6834	-9.0762	-7.3609	57.4708	-13.5000	0.6541	-0.0000	87.4301	-5.3007	-3.5738	77.6616	12.2101	-2.5680	0.0000	-16.3646	0.6669	-1.0983	104.7084	-4.5838	21.2274	11.1862	68.7342	-46.6068	-42.0609	90.6392	-3.9973	41.7647	8.7245	41.8304	-45.4463	-48.1692	
0.4830	-28.6355	0.7435	-45.9683	0.0000	1.2500	-0.0000	62.0530	-8.7026	-6.7542	63.0468	-13.1196	1.4094	0.0000	84.9045	-5.5075	-4.5924	72.7998	10.7875	-2.2252	0.0000	-16.4928	0.5926	-0.9530	104.7417	-4.4821	21.4614	11.2119	68.7911	-46.6008	-41.9488	90.9598	-4.3395	41.2522	8.7243	42.1986	-45.1913	-48.0287	
0.5000	-28.4072	0.5043	-46.7182	0.0000	1.2500	-0.0000	64.5366	-8.2576	-5.9521	68.3632	-12.9880	2.2932	-0.0000	82.1823	-5.7904	-5.4114	67.9191	8.9170	-1.8029	-0.0000	-16.6270	0.5093	-0.7792	104.8049	-4.3549	21.6216	11.2054	68.9050	-46.5939	-41.8489	91.2719	-4.7064	40.8202	8.7080	42.4675	-44.9897	-47.9313	
0.5160	-28.1916	0.1829	-47.6072	0.0000	1.2500	-0.0000	67.1255	-7.7540	-4.8514	73.3124	-13.2141	3.3599	-0.0000	79.2525	-6.1866	-5.9646	62.9883	6.5027	-1.2441	-0.0000	-16.7651	0.4189	-0.5749	104.9179	-4.1980	21.6258	11.1449	69.1248	-46.5808	-41.7743	91.5619	-5.1009	40.5657	8.6614	42.5475	-44.8971	-47.9076	
